<?xml version="1.0" encoding="iso-8859-1"?>
<!-- Generator: Adobe Illustrator 20.1.0, SVG Export Plug-In . SVG Version: 6.00 Build 0)  -->
<svg xmlns="http://www.w3.org/2000/svg" xmlns:xlink="http://www.w3.org/1999/xlink" version="1.1" id="&#1057;&#1083;&#1086;&#1081;_1" x="0px" y="0px" viewBox="0 0 64 64" style="enable-background:new 0 0 64 64;" xml:space="preserve">
<linearGradient id="SVGID_1__48280" gradientUnits="userSpaceOnUse" x1="32" y1="46" x2="32" y2="51.6667" spreadMethod="reflect">
	<stop offset="0" style="stop-color:#6DC7FF"/>
	<stop offset="1" style="stop-color:#E6ABFF"/>
</linearGradient>
<rect x="9" y="47" style="fill:url(#SVGID_1__48280);" width="46" height="4"/>
<linearGradient id="SVGID_2__48280" gradientUnits="userSpaceOnUse" x1="32" y1="7.4815" x2="32" y2="57.2731" spreadMethod="reflect">
	<stop offset="0" style="stop-color:#1A6DFF"/>
	<stop offset="1" style="stop-color:#C822FF"/>
</linearGradient>
<path style="fill:url(#SVGID_2__48280);" d="M56,50v-3.018v-1v-7c0-1.654-1.346-3-3-3v-3C53,31.327,51.654,30,50,30h-2v-3.018  C48,25.327,46.654,24,45,24h-2v-2.168c1.72-0.472,3-2.111,3-4.074c0-1.139-0.813-2.811-2.418-4.97c-0.763-1.025-2.401-1.025-3.164,0  C38.813,14.948,38,16.619,38,17.758c0,1.962,1.28,3.602,3,4.074V24h-8v-6.151c1.845-0.452,3.224-2.108,3.224-4.091  c0-1.15-0.876-2.832-2.605-4.997c-0.791-0.99-2.446-0.99-3.237,0c-1.729,2.165-2.605,3.847-2.605,4.997  c0,1.983,1.378,3.639,3.224,4.091V24h-8v-2.168c1.72-0.472,3-2.111,3-4.074c0-1.137-0.813-2.809-2.417-4.969  c-0.763-1.027-2.403-1.028-3.168,0.001C18.813,14.949,18,16.621,18,17.758c0,1.962,1.28,3.602,3,4.074V24h-2  c-1.654,0-3,1.327-3,2.982V30h-2c-1.654,0-3,1.327-3,2.982v3c-1.654,0-3,1.346-3,3v7v1V50H6v0.982C6,53.739,8.243,56,11,56h42  c2.757,0,5-2.261,5-5.018V50H56z M40,17.758c0-0.51,0.532-1.77,1.977-3.776C43.468,15.989,44,17.248,44,17.758  c0,1.227-0.897,2.224-2,2.224S40,18.985,40,17.758z M29.776,13.758c0-0.477,0.568-1.745,2.167-3.749l-0.781-0.624l0.894,0.624  c1.6,2.004,2.167,3.272,2.167,3.749c0,1.227-0.998,2.224-2.224,2.224S29.776,14.985,29.776,13.758z M20,17.758  c0-0.509,0.531-1.768,1.978-3.776C23.469,15.99,24,17.249,24,17.758c0,1.227-0.897,2.224-2,2.224S20,18.985,20,17.758z M54,38.982  V41h-2c-1.858,0-3.411-1-3.858-3H53C53.551,38,54,38.43,54,38.982z M18,26.982C18,26.43,18.449,26,19,26h26c0.551,0,1,0.43,1,0.982  V30H18V26.982z M13,32.982C13,32.43,13.449,32,14,32h36c0.551,0,1,0.43,1,0.982V36H13V32.982z M45.858,38c-0.447,2-2,3-3.858,3  s-3.411-1-3.858-3H45.858z M35.858,38c-0.447,2-2,3-3.858,3s-3.411-1-3.858-3H35.858z M25.858,38c-0.447,2-2,3-3.858,3  s-3.411-1-3.858-3H25.858z M11,38h4.858c-0.447,2-2,3-3.858,3h-2v-2.018C10,38.43,10.449,38,11,38z M10,43h2  c2.086,0,3.925-1.08,5-2.7c1.075,1.62,2.914,2.686,5,2.686s3.925-1.073,5-2.693c1.075,1.62,2.914,2.689,5,2.689s3.925-1.071,5-2.691  c1.075,1.62,2.914,2.69,5,2.69s3.925-1.062,5-2.681C48.075,41.92,49.914,43,52,43h2v3H10V43z M54,48v2H10v-2H54z M53,54H11  c-1.304,0-2.416-1-2.829-2H9h46h0.829C55.416,53,54.304,54,53,54z"/>
</svg>
