<?xml version="1.0" encoding="iso-8859-1"?>
<!-- Generator: Adobe Illustrator 21.0.2, SVG Export Plug-In . SVG Version: 6.00 Build 0)  -->
<svg xmlns="http://www.w3.org/2000/svg" xmlns:xlink="http://www.w3.org/1999/xlink" version="1.1" id="Layer_1" x="0px" y="0px" viewBox="0 0 64 64" style="enable-background:new 0 0 64 64;" xml:space="preserve">
<g>
	
		<linearGradient id="SVGID_1__55441" gradientUnits="userSpaceOnUse" x1="-46.7855" y1="36.6497" x2="-7.7373" y2="75.6979" gradientTransform="matrix(0.7071 0.7071 -0.7071 0.7071 90.9897 11.3345)" spreadMethod="reflect">
		<stop offset="0" style="stop-color:#6DC7FF"/>
		<stop offset="1" style="stop-color:#E6ABFF"/>
	</linearGradient>
	<path style="fill:url(#SVGID_1__55441);" d="M41.185,12.8c-5.069-5.069-13.316-5.069-18.385,0s-5.069,13.316,0,18.385   s13.316,5.069,18.385,0S46.253,17.868,41.185,12.8z M24.214,29.77c-4.289-4.289-4.289-11.267,0-15.556s11.267-4.289,15.556,0   s4.289,11.267,0,15.556S28.503,34.059,24.214,29.77z"/>
	<linearGradient id="SVGID_2__55441" gradientUnits="userSpaceOnUse" x1="32" y1="5" x2="32" y2="60" spreadMethod="reflect">
		<stop offset="0" style="stop-color:#1A6DFF"/>
		<stop offset="1" style="stop-color:#C822FF"/>
	</linearGradient>
	<path style="fill:url(#SVGID_2__55441);" d="M49,22c0-9.389-7.611-17-17-17s-17,7.611-17,17c0,9.051,7.079,16.429,16,16.95V49h-9v2h9v9h2   v-9h9v-2h-9V38.95C41.921,38.429,49,31.051,49,22z M17,22c0-8.284,6.716-15,15-15s15,6.716,15,15c0,8.284-6.716,15-15,15   S17,30.284,17,22z"/>
</g>
</svg>
