<?xml version="1.0" encoding="iso-8859-1"?>
<!-- Generator: Adobe Illustrator 21.0.2, SVG Export Plug-In . SVG Version: 6.00 Build 0)  -->
<svg xmlns="http://www.w3.org/2000/svg" xmlns:xlink="http://www.w3.org/1999/xlink" version="1.1" id="Layer_1" x="0px" y="0px" viewBox="0 0 64 64" style="enable-background:new 0 0 64 64;" xml:space="preserve">
<linearGradient id="SVGID_1__55439" gradientUnits="userSpaceOnUse" x1="-18.3137" y1="-46.6863" x2="-18.3137" y2="-34.6863" gradientTransform="matrix(1 0 0 1 71.3137 52.6863)" spreadMethod="reflect">
	<stop offset="0" style="stop-color:#6DC7FF"/>
	<stop offset="1" style="stop-color:#E6ABFF"/>
</linearGradient>
<path style="fill:url(#SVGID_1__55439);" d="M57.279,6.043l-9.23,2.308c-1.044,0.261-1.404,1.56-0.643,2.321l6.923,6.923  c0.761,0.761,2.06,0.401,2.321-0.643l2.308-9.23C59.211,6.707,58.293,5.789,57.279,6.043z"/>
<linearGradient id="SVGID_2__55439" gradientUnits="userSpaceOnUse" x1="32" y1="6.0547" x2="32" y2="57.9453" spreadMethod="reflect">
	<stop offset="0" style="stop-color:#1A6DFF"/>
	<stop offset="1" style="stop-color:#C822FF"/>
</linearGradient>
<path style="fill:url(#SVGID_2__55439);" d="M57.621,6.055c-0.112,0-0.226,0.014-0.342,0.043l-9.23,2.308  c-1.044,0.261-1.404,1.56-0.643,2.321l2.754,2.754l-6.093,6.093C42.156,17.969,39.693,17,37,17c-5.07,0-9.33,3.42-10.6,8.08  c-0.18,0.63-0.3,1.3-0.36,1.97C26.01,27.37,26,27.68,26,28c0,0.36,0.02,0.71,0.05,1.06c0.07,0.72,0.21,1.42,0.41,2.09  c0.86,2.9,2.88,5.29,5.53,6.64c-0.02-1.02-0.27-1.97-0.69-2.83c-0.88-0.72-1.62-1.6-2.17-2.6c-0.48-0.85-0.82-1.79-0.99-2.79  C28.05,29.06,28,28.54,28,28c0-0.2,0.01-0.39,0.02-0.58c0.04-0.68,0.16-1.34,0.35-1.97C29.46,21.72,32.91,19,37,19  c4.97,0,9,4.03,9,9c0,4.65-3.53,8.48-8.05,8.95C37.99,37.3,38,37.65,38,38c0,0.32-0.01,0.64-0.04,0.96C43.59,38.48,48,33.76,48,28  c0-2.666-0.946-5.108-2.521-7.01l6.095-6.095l2.754,2.754c0.278,0.278,0.628,0.406,0.973,0.406c0.599,0,1.183-0.387,1.348-1.049  l2.307-9.23C59.182,6.878,58.487,6.055,57.621,6.055z M54.974,15.465l-5.384-5.384l7.178-1.794L54.974,15.465z M35.95,36.94  C35.98,37.29,36,37.64,36,38c0,0.32-0.01,0.63-0.04,0.95c-0.06,0.67-0.18,1.34-0.36,1.97C34.33,45.58,30.07,49,25,49  c-2.693,0-5.156-0.969-7.068-2.573l-5.861,5.861l4.243,4.243l-1.414,1.414l-4.243-4.243l-4.243,4.243L5,56.531l4.243-4.243L5,48.046  l1.414-1.414l4.243,4.243l5.864-5.864C14.946,43.108,14,40.666,14,38c0-5.76,4.41-10.48,10.04-10.96C24.01,27.36,24,27.68,24,28  c0,0.35,0.01,0.7,0.05,1.05C19.53,29.52,16,33.35,16,38c0,4.97,4.03,9,9,9c4.09,0,7.54-2.72,8.63-6.45  c0.19-0.63,0.31-1.29,0.35-1.97C33.99,38.39,34,38.2,34,38c0-0.54-0.05-1.06-0.14-1.57c-0.17-1-0.51-1.94-0.99-2.79  c-0.55-1-1.29-1.88-2.17-2.6c-0.42-0.86-0.67-1.81-0.69-2.83c2.65,1.35,4.67,3.74,5.53,6.64C35.74,35.52,35.88,36.22,35.95,36.94z"/>
</svg>
