<?xml version="1.0" encoding="iso-8859-1"?>
<!-- Generator: Adobe Illustrator 21.0.2, SVG Export Plug-In . SVG Version: 6.00 Build 0)  -->
<svg xmlns="http://www.w3.org/2000/svg" xmlns:xlink="http://www.w3.org/1999/xlink" version="1.1" id="Layer_1" x="0px" y="0px" viewBox="0 0 64 64" style="enable-background:new 0 0 64 64;" xml:space="preserve">
<g>
	<linearGradient id="SVGID_1__55440" gradientUnits="userSpaceOnUse" x1="48.5" y1="7" x2="48.5" y2="24" spreadMethod="reflect">
		<stop offset="0" style="stop-color:#6DC7FF"/>
		<stop offset="1" style="stop-color:#E6ABFF"/>
	</linearGradient>
	<path style="fill:url(#SVGID_1__55440);" d="M54.562,7.06l-13.076,3.269c-1.478,0.37-1.988,2.211-0.911,3.288l9.807,9.807   c1.078,1.078,2.919,0.568,3.288-0.911L56.94,9.438C57.299,8.002,55.998,6.701,54.562,7.06z"/>
	
		<linearGradient id="SVGID_2__55440" gradientUnits="userSpaceOnUse" x1="-15.1114" y1="113.0172" x2="23.9368" y2="152.0654" gradientTransform="matrix(0.7071 0.7071 -0.7071 0.7071 115.5928 -48.0625)" spreadMethod="reflect">
		<stop offset="0" style="stop-color:#6DC7FF"/>
		<stop offset="1" style="stop-color:#E6ABFF"/>
	</linearGradient>
	<path style="fill:url(#SVGID_2__55440);" d="M34.185,29.8c-5.069-5.069-13.316-5.069-18.385,0s-5.069,13.316,0,18.385   s13.316,5.069,18.385,0S39.253,34.868,34.185,29.8z M17.214,46.77c-4.289-4.289-4.289-11.267,0-15.556s11.267-4.289,15.556,0   s4.289,11.267,0,15.556S21.503,51.059,17.214,46.77z"/>
	<linearGradient id="SVGID_3__55440" gradientUnits="userSpaceOnUse" x1="32.5" y1="7" x2="32.5" y2="56" spreadMethod="reflect">
		<stop offset="0" style="stop-color:#1A6DFF"/>
		<stop offset="1" style="stop-color:#C822FF"/>
	</linearGradient>
	<path style="fill:url(#SVGID_3__55440);" d="M55.046,7c-0.158,0-0.32,0.019-0.484,0.06l-13.076,3.269   c-1.478,0.37-1.988,2.211-0.911,3.288l4.196,4.196l-8.492,8.492C33.277,23.636,29.334,22,25,22c-9.389,0-17,7.611-17,17   s7.611,17,17,17s17-7.611,17-17c0-4.334-1.636-8.277-4.306-11.28l8.492-8.492l4.196,4.196C50.776,23.818,51.272,24,51.761,24   c0.849,0,1.676-0.548,1.91-1.486L56.94,9.438C57.258,8.166,56.273,7,55.046,7z M25,54c-8.284,0-15-6.716-15-15   c0-8.284,6.716-15,15-15s15,6.716,15,15C40,47.284,33.284,54,25,54z M51.747,21.961l-9.708-9.708l12.944-3.236L51.747,21.961z"/>
</g>
</svg>
